<svg xmlns="http://www.w3.org/2000/svg" width="800" height="440" viewBox="0 0 800 440">
<rect width="100%" height="100%" fill="white"/>
<g font-family="sans-serif" font-size="15" fill="#333">
<path d="M85,370.0 H765" stroke="#e5e5e5"/>
<text x="73" y="375.0" text-anchor="end">0.00</text>
<path d="M85,296.2 H765" stroke="#e5e5e5"/>
<text x="73" y="301.2" text-anchor="end">0.25</text>
<path d="M85,222.5 H765" stroke="#e5e5e5"/>
<text x="73" y="227.5" text-anchor="end">0.50</text>
<path d="M85,148.8 H765" stroke="#e5e5e5"/>
<text x="73" y="153.8" text-anchor="end">0.75</text>
<path d="M85,75.0 H765" stroke="#e5e5e5"/>
<text x="73" y="80.0" text-anchor="end">1.00</text>
<text x="85.0" y="395" text-anchor="middle">0</text>
<text x="765.0" y="395" text-anchor="middle">1</text>
<path d="M85,75 V370 H765" fill="none" stroke="#333"/>
<text x="425" y="425" text-anchor="middle">Step</text>
<text transform="translate(23,225) rotate(-90)" text-anchor="middle">Valid-code diversity (lexical distance)</text>
<path d="M85,30 h25" stroke="#702dbd" stroke-width="3"/>
<text x="119" y="35">Within strategy</text>
<circle cx="85.0" cy="90.2" r="3" fill="#702dbd"/>
<polyline points="85.0,90.2" fill="none" stroke="#702dbd" stroke-width="2.5"/>
<path d="M410,30 h25" stroke="#29a6b6" stroke-width="3"/>
<text x="444" y="35">Across strategies</text>
<circle cx="85.0" cy="88.5" r="3" fill="#29a6b6"/>
<polyline points="85.0,88.5" fill="none" stroke="#29a6b6" stroke-width="2.5"/>
</g></svg>
